<svg xmlns="http://www.w3.org/2000/svg" viewBox="0 0 71.12 14.95"><defs/><defs><style>.a{fill:#999}</style></defs><path d="M2.04 10.13c0 1.86-.14 2.47-.52 2.92a2.26 2.26 0 01-1.52.59l.14 1.11a3.52 3.52 0 002.37-.88 4.3 4.3 0 00.91-3.18V3.64H2.03v6.49zM12.41 9.28a19.51 19.51 0 00.07 2.12h-1.25v-1.27a3 3 0 01-1.07 1.07 2.86 2.86 0 01-1.46.37c-1.2 0-2.64-.68-2.64-3.4V3.63h1.39v4.3c0 1.48.45 2.48 1.71 2.48a2.06 2.06 0 001.1-.36 2.09 2.09 0 00.73-.91 2.28 2.28 0 00.12-.73V3.63h1.39v5.65zM15.03 6.13c0-1 0-1.8-.06-2.55h1.26l.06 1.33a3 3 0 011.15-1.14 3.06 3.06 0 011.57-.37c1.84 0 3.24 1.59 3.24 3.95 0 2.79-1.67 4.17-3.48 4.17a2.61 2.61 0 01-1.34-.3 2.73 2.73 0 01-1-.92v4.22h-1.4V6.13zm1.38 2.07a2.86 2.86 0 00.06.58 2.15 2.15 0 002.08 1.65c1.48 0 2.32-1.22 2.32-3 0-1.56-.8-2.89-2.27-2.89a2.17 2.17 0 00-1.37.59 2.25 2.25 0 00-.75 1.24 1.9 1.9 0 00-.09.58v1.33zM24.72 3.63l1.67 4.6c.17.51.37 1.12.49 1.59.14-.47.3-1.06.49-1.62l1.52-4.56h1.47l-2.08 5.54c-1 2.66-1.67 4-2.62 4.86a3.74 3.74 0 01-1.71.91l-.34-1.19a3.56 3.56 0 001.21-.69 4.13 4.13 0 001.17-1.57.85.85 0 00.11-.34 1.18 1.18 0 00-.09-.37l-2.78-7.15h1.5zM34.04 1.4v2.23h2v1.08h-2v4.18c0 1 .27 1.51 1.05 1.51a2.69 2.69 0 00.8-.09l.07 1.06a3.48 3.48 0 01-1.23.19 2.08 2.08 0 01-.82-.13 1.89 1.89 0 01-.68-.47 2.86 2.86 0 01-.54-2V4.73H31.5v-1.1h1.19V1.77l1.35-.37zM38.59 7.77a2.48 2.48 0 002.63 2.7 4.93 4.93 0 002.11-.4l.24 1a6.1 6.1 0 01-2.53.48 3.58 3.58 0 01-3.76-3.92c0-2.34 1.36-4.19 3.58-4.19 2.49 0 3.16 2.23 3.16 3.66v.66h-5.39zm4.08-1a2 2 0 00-1.93-2.29 2.32 2.32 0 00-2.13 2.29zM46.05 6.06c0-.92 0-1.7-.07-2.43h1.25v1.53h.07a2.28 2.28 0 012.11-1.7 1.26 1.26 0 01.39 0v1.33a1.83 1.83 0 00-.47 0 2 2 0 00-1.86 1.81 4.93 4.93 0 00-.07.66v4.14h-1.37V6.06z" class="a"/><path fill="#f37726" d="M51.69 11.4h1.41V0h-1.41zm9.65 0a10.57 10.57 0 01-.13-1.86V6.63c0-1.55-.58-3.18-3-3.18a4.81 4.81 0 00-2.55.7l.32.93a3.92 3.92 0 012-.58 1.6 1.6 0 011.76 1.8v.16c-3 0-4.67 1-4.67 2.89a2.21 2.21 0 002.38 2.23 2.9 2.9 0 002.37-1.15h.05l.11 1h1.29zm-1.5-2.62a1.42 1.42 0 01-.08.45 1.92 1.92 0 01-1.88 1.3 1.25 1.25 0 01-1.33-1.35c0-1.51 1.75-1.78 3.29-1.75zm5.08 2.62l.07-1.29a2.75 2.75 0 002.6 1.46c1.73 0 3.48-1.38 3.48-4.16 0-2.35-1.35-4-3.27-4a2.88 2.88 0 00-2.65 1.43V-.04h-1.4v9.39c0 .69 0 1.48-.06 2zm.24-4.51a2.9 2.9 0 01.08-.58 2.27 2.27 0 012.15-1.74c1.51 0 2.32 1.34 2.32 2.89 0 1.79-.89 3-2.37 3a2.19 2.19 0 01-2.12-1.66 2.74 2.74 0 01-.06-.51V6.9z"/></svg>