<svg xmlns="http://www.w3.org/2000/svg" id="Livello_1" x="0" y="0" version="1.1" xml:space="preserve" viewBox="0 0 137.2 34.756">
  <defs/>
  <style id="style3780" type="text/css">
  </style>
  <g id="g3800" transform="translate(-14.1 -.022)">
    <path id="path3794" fill="#81b7e4" d="M151.3 17.4s-18.6-39.1-48.5 0-48.5 0-48.5 0h-9.4s18.6 39.1 48.5 0 48.5 0 48.5 0z"/>
    <path id="path3796" fill="#656db1" d="M136.4 17.4s-18.6-39.1-48.5 0-48.5 0-48.5 0H30s18.6 39.1 48.5 0 48.5 0 48.5 0z"/>
    <path id="path3798" fill="#ba4576" d="M120.5 17.4s-18.6-39.1-48.5 0-48.5 0-48.5 0h-9.4s18.6 39.1 48.5 0 48.5 0 48.5 0z"/>
  </g>
</svg>
