<svg xmlns="http://www.w3.org/2000/svg" viewBox="0 0 21.77 10.71"><defs><style>.a{fill:#646eb1;}</style></defs><title>VM</title><path class="a" d="M504,378h1.82l-3.75,10.71h-1.85L496.52,378h1.8l2.23,6.66c.12.31.24.72.38,1.22s.21.88.25,1.12c.07-.37.16-.8.3-1.29s.24-.85.32-1.08Z" transform="translate(-496.52 -377.95)"/><path class="a" d="M511.89,388.66l-3.1-9h-.06c.08,1.33.12,2.58.12,3.74v5.21h-1.59V378h2.47l3,8.52h0l3.06-8.52h2.48v10.71H516.6v-5.3c0-.53,0-1.22,0-2.08s.05-1.37.07-1.55h-.06l-3.21,8.93Z" transform="translate(-496.52 -377.95)"/></svg>