<svg xmlns="http://www.w3.org/2000/svg" viewBox="0 0 20 20"><defs><style>.a{fill:#999;}</style></defs><title>Icon_Settings</title><path class="a" d="M522.48,376.71l-.63.07h0l-.5,2.71a7.07,7.07,0,0,0-2.25.92l-2.22-1.6a9.87,9.87,0,0,0-1.63,1.6l1.54,2.25a7.48,7.48,0,0,0-1,2.39v0l-2.69.42a10,10,0,0,0-.07,1.23c0,.34,0,.68,0,1l2.69.48a7.46,7.46,0,0,0,1.07,2.58L515.2,393a9.88,9.88,0,0,0,1.55,1.55L519,393a7.16,7.16,0,0,0,2.63,1l.43,2.68c.3,0,.61,0,.92,0a10.58,10.58,0,0,0,1.27-.07l.51-2.74a7.25,7.25,0,0,0,2.51-1.14l2.18,1.58a9.77,9.77,0,0,0,1.53-1.62l-1.58-2.3a7.26,7.26,0,0,0,.87-2.44l2.68-.42c0-.28,0-.55,0-.84a9.89,9.89,0,0,0-.13-1.45l-2.72-.5a7.33,7.33,0,0,0-1-2.18l1.6-2.2a10.5,10.5,0,0,0-1.69-1.64l-2.31,1.59a7,7,0,0,0-2.15-.87l-.42-2.69a11.5,11.5,0,0,0-1.18-.07h-.52Zm.26,4.86H523a4.93,4.93,0,1,1-.26,0Z" transform="translate(-513 -376.71)"/></svg>