<svg xmlns="http://www.w3.org/2000/svg" viewBox="0 0 71.12 14.95"><defs><style>.a{fill:#999;}.b{fill:#f37726;}</style></defs><title>JupyterLab</title><path class="a" d="M478.81,387c0,1.86-.14,2.47-.52,2.92a2.26,2.26,0,0,1-1.52.59l.14,1.11a3.52,3.52,0,0,0,2.37-.88,4.3,4.3,0,0,0,.91-3.18v-7.05H478.8V387Z" transform="translate(-476.77 -376.87)"/><path class="a" d="M489.18,386.15a19.51,19.51,0,0,0,.07,2.12H488L488,387h0a3,3,0,0,1-1.07,1.07,2.86,2.86,0,0,1-1.46.37c-1.2,0-2.64-.68-2.64-3.4V380.5h1.39v4.3c0,1.48.45,2.48,1.71,2.48a2.06,2.06,0,0,0,1.1-.36,2.09,2.09,0,0,0,.73-.91,2.28,2.28,0,0,0,.12-.73V380.5h1.39v5.65Z" transform="translate(-476.77 -376.87)"/><path class="a" d="M491.8,383c0-1,0-1.8-.06-2.55H493l.06,1.33h0a3,3,0,0,1,1.15-1.14,3.06,3.06,0,0,1,1.57-.37c1.84,0,3.24,1.59,3.24,3.95,0,2.79-1.67,4.17-3.48,4.17a2.61,2.61,0,0,1-1.34-.3,2.73,2.73,0,0,1-1-.92h0v4.22H491.8V383Zm1.38,2.07a2.86,2.86,0,0,0,.06.58,2.15,2.15,0,0,0,2.08,1.65c1.48,0,2.32-1.22,2.32-3,0-1.56-.8-2.89-2.27-2.89A2.17,2.17,0,0,0,494,382a2.25,2.25,0,0,0-.75,1.24,1.9,1.9,0,0,0-.09.58v1.33Z" transform="translate(-476.77 -376.87)"/><path class="a" d="M501.49,380.5l1.67,4.6c.17.51.37,1.12.49,1.59h0c.14-.47.3-1.06.49-1.62l1.52-4.56h1.47l-2.08,5.54c-1,2.66-1.67,4-2.62,4.86a3.74,3.74,0,0,1-1.71.91l-.34-1.19a3.56,3.56,0,0,0,1.21-.69,4.13,4.13,0,0,0,1.17-1.57.85.85,0,0,0,.11-.34,1.18,1.18,0,0,0-.09-.37L500,380.51h1.5Z" transform="translate(-476.77 -376.87)"/><path class="a" d="M510.81,378.27v2.23h2v1.08h-2v4.18c0,1,.27,1.51,1.05,1.51a2.69,2.69,0,0,0,.8-.09l.07,1.06a3.48,3.48,0,0,1-1.23.19,2.08,2.08,0,0,1-.82-.13,1.89,1.89,0,0,1-.68-.47,2.86,2.86,0,0,1-.54-2v-4.23h-1.19V380.5h1.19v-1.86l1.35-.37Z" transform="translate(-476.77 -376.87)"/><path class="a" d="M515.36,384.64a2.48,2.48,0,0,0,2.63,2.7,4.93,4.93,0,0,0,2.11-.4l.24,1a6.1,6.1,0,0,1-2.53.48,3.58,3.58,0,0,1-3.76-3.92c0-2.34,1.36-4.19,3.58-4.19,2.49,0,3.16,2.23,3.16,3.66,0,.22,0,.44,0,.66h-5.39Zm4.08-1a2,2,0,0,0-1.93-2.29,2.32,2.32,0,0,0-2.13,2.29Z" transform="translate(-476.77 -376.87)"/><path class="a" d="M522.82,382.93c0-.92,0-1.7-.07-2.43H524l0,1.53h.07a2.28,2.28,0,0,1,2.11-1.7,1.26,1.26,0,0,1,.39,0v1.33a1.83,1.83,0,0,0-.47,0,2,2,0,0,0-1.86,1.81,4.93,4.93,0,0,0-.07.66v4.14h-1.37v-5.34Z" transform="translate(-476.77 -376.87)"/><path class="b" d="M528.46,388.27h1.41v-11.4h-1.41Zm9.65,0a10.57,10.57,0,0,1-.13-1.86V383.5c0-1.55-.58-3.18-3-3.18a4.81,4.81,0,0,0-2.55.7l.32.93a3.92,3.92,0,0,1,2-.58,1.6,1.6,0,0,1,1.76,1.8v.16c-3,0-4.67,1-4.67,2.89a2.21,2.21,0,0,0,2.38,2.23,2.9,2.9,0,0,0,2.37-1.15h.05l.11,1h1.29Zm-1.5-2.62a1.42,1.42,0,0,1-.08.45,1.92,1.92,0,0,1-1.88,1.3,1.25,1.25,0,0,1-1.33-1.35c0-1.51,1.75-1.78,3.29-1.75Zm5.08,2.62.07-1.29h0a2.75,2.75,0,0,0,2.6,1.46c1.73,0,3.48-1.38,3.48-4.16,0-2.35-1.35-4-3.27-4a2.88,2.88,0,0,0-2.65,1.43h0v-4.88h-1.4v9.39c0,.69,0,1.48-.06,2Zm.24-4.51a2.9,2.9,0,0,1,.08-.58,2.27,2.27,0,0,1,2.15-1.74c1.51,0,2.32,1.34,2.32,2.89,0,1.79-.89,3-2.37,3a2.19,2.19,0,0,1-2.12-1.66,2.74,2.74,0,0,1-.06-.51v-1.39Z" transform="translate(-476.77 -376.87)"/></svg>