<svg xmlns="http://www.w3.org/2000/svg" viewBox="0 0 78.86 20"><defs><style>.a{fill:#82b8e4;}.b{fill:#646eb1;}.c{fill:#bb4677;}</style></defs><title>PaNOSC_symbol</title><path class="a" d="M562.43,386.71s-10.69-22.5-27.87,0-27.87,0-27.87,0h-5.42s10.69,22.5,27.87,0,27.87,0,27.87,0Z" transform="translate(-483.57 -376.71)"/><path class="b" d="M553.85,386.71s-10.69-22.5-27.87,0-27.87,0-27.87,0h-5.42s10.69,22.5,27.87,0,27.87,0,27.87,0Z" transform="translate(-483.57 -376.71)"/><path class="c" d="M544.73,386.71s-10.69-22.5-27.87,0-27.87,0-27.87,0h-5.42s10.69,22.5,27.87,0,27.87,0,27.87,0Z" transform="translate(-483.57 -376.71)"/></svg>