<svg xmlns="http://www.w3.org/2000/svg" viewBox="0 0 466 52"><defs><style>.a{fill:#fff;}.b{fill:#82b8e4;}.c{fill:#646eb1;}.d{fill:#bb4677;}</style></defs><path class="a" d="M225.83,43.69V15.21c0-2.52.47-3.71,5.84-4.44a92.36,92.36,0,0,1,12.81-.8c16.13,0,19.65,4.25,19.65,13.67s-3.05,13.67-18.85,13.67c-3.05,0-5.31-.19-7.23-.33-.87-.06-1.6.14-1.6,1.4v5.31c0,3.12-.66,3.71-4.64,3.71h-1.13c-4.18,0-4.85-.59-4.85-3.71m27.15-20c0-8.29-2.26-10-8.56-10a39.28,39.28,0,0,0-6.64.53c-.66.13-1.33.33-1.33,1.46V31.61c0,1.12.67,1.32,1.33,1.52a42,42,0,0,0,6.64.47c6.3,0,8.56-1.66,8.56-10"/><path class="a" d="M267.23,30c0-5.86,6.14-6.25,14.51-6.25h6.47c.67,0,1.4-.16,1.4-1.28v-.89c0-3.57-2.46-3.74-7.37-3.74a85.8,85.8,0,0,0-10.88.84c-1.22.16-1.67-.12-1.67-1.68s.17-1.73,1.62-2a103.73,103.73,0,0,1,13.05-.78c4.91,0,8.65.45,11,1.56s3.18,3.07,3.18,5.58V32.74c0,2.13-.4,3.13-5.08,3.86a97.24,97.24,0,0,1-11.5.66c-12.77,0-14.73-2.17-14.73-7.25M288,33.75c.95-.22,1.62-.5,1.62-1.79V28.28c0-1-.73-1.23-1.34-1.23h-5.92c-4,0-5.8.34-5.8,3.18,0,3.41,1.4,3.91,6.25,3.91a31.13,31.13,0,0,0,5.19-.39"/><path class="a" d="M315.8,33c0,3.12-.66,3.65-4.64,3.65H310c-4.25,0-4.85-.66-4.85-3.65V15.35c0-2.53.47-3.46,6-4.38a99.3,99.3,0,0,1,14.53-1c11.88,0,16.4,2.92,16.4,10V33c0,3.12-.67,3.65-4.65,3.65h-1.06c-4.32,0-4.91-.66-4.91-3.65V19.86c0-5.18-2.72-6-7.5-6a29.93,29.93,0,0,0-6.57.66,1.72,1.72,0,0,0-1.6,1.93Z"/><path class="a" d="M347.33,23.71c0-7.63,1.79-13.74,19.91-13.74s19.91,6.11,19.91,13.74-1.86,13.67-19.91,13.67-19.91-6.1-19.91-13.67m28.67,0c0-6.51-.66-10.09-8.76-10.09s-8.76,3.58-8.76,10.09.66,10,8.76,10,8.76-3.52,8.76-10"/><path class="a" d="M393.32,36.32c-1.73-.33-1.93-.6-1.93-2.32,0-1.93.54-2.26,2-2.06a102.47,102.47,0,0,0,15.39,1.26c5.91,0,7.77-.4,7.77-2.72s-.93-2.79-8.69-3.25c-12.61-.6-16.73-1.53-16.73-8.57C391.13,10,398,10,408.72,10a87.82,87.82,0,0,1,13.54,1c1.66.26,1.92.46,1.92,2.19s-.53,2.25-2,2.05a104.46,104.46,0,0,0-12.87-.93c-6.24,0-8.17.14-8.17,2.46s.67,2.65,8,2.92c12.87.6,17.19,1.06,17.19,8.89,0,8.37-8.56,8.83-18.26,8.83a96.69,96.69,0,0,1-14.73-1.06"/><path class="a" d="M430.22,23.58c0-9,4-13.74,20-13.68a87.46,87.46,0,0,1,12.75.93c1.72.33,2,.6,2,2.39s-.53,2.06-2.06,1.93a94,94,0,0,0-10.42-.8c-9.16,0-11.21,2.46-11.21,9.23s2.05,9.29,11.21,9.29a94,94,0,0,0,10.42-.8c1.53-.2,2.06,0,2.06,1.93s-.27,2-2,2.32a69.42,69.42,0,0,1-12.75.93c-16,.13-20-4.65-20-13.67"/><path class="b" d="M198.29,26.24s-26.74-56.25-69.67,0-69.68,0-69.68,0H45.38s26.73,56.25,69.67,0,69.68,0,69.68,0Z"/><path class="c" d="M176.84,26.24s-26.73-56.25-69.67,0-69.68,0-69.68,0H23.93s26.74,56.25,69.68,0,69.67,0,69.67,0Z"/><path class="d" d="M154.05,26.24s-26.74-56.25-69.67,0-69.68,0-69.68,0H1.14s26.73,56.25,69.67,0,69.68,0,69.68,0Z"/></svg>